<svg width="15" height="20" viewBox="0 0 15 20" fill="none" xmlns="http://www.w3.org/2000/svg">
<path d="M2.94141 19.2754C1.50586 19.2754 0.744141 18.4941 0.744141 16.9512V10.2227C0.744141 8.86523 1.33984 8.10352 2.45312 7.9375V5.57422C2.45312 1.90234 4.85547 0.115234 7.4043 0.115234C9.96289 0.115234 12.3652 1.90234 12.3652 5.57422V7.9375C13.4883 8.10352 14.0742 8.86523 14.0742 10.2227V16.9512C14.0742 18.4941 13.3125 19.2754 11.877 19.2754H2.94141ZM4.00586 5.35938V7.9082H10.8223V5.35938C10.8223 2.89844 9.23047 1.58984 7.4043 1.58984C5.57812 1.58984 4.00586 2.89844 4.00586 5.35938Z" fill="#B5B5B5"/>
</svg>
