<svg width="41" height="41" viewBox="0 0 41 41" fill="none" xmlns="http://www.w3.org/2000/svg">
<path d="M20.418 40.8203C9.44141 40.8203 0.496094 31.875 0.496094 20.8984C0.496094 9.90234 9.44141 0.976562 20.418 0.976562C31.4141 0.976562 40.3398 9.90234 40.3398 20.8984C40.3398 31.875 31.4141 40.8203 20.418 40.8203ZM20.3984 24.2383C24.168 24.2773 27.0977 21.0742 27.0977 16.875C27.0977 12.9297 24.1484 9.64844 20.3984 9.64844C16.668 9.64844 13.6797 12.9297 13.6992 16.875C13.6992 21.0742 16.6484 24.1992 20.3984 24.2383ZM20.3984 37.8516C24.8906 37.8516 29.4023 36.0156 32.4102 32.832C30.2812 29.4727 25.6523 27.5586 20.3984 27.5586C15.1055 27.5586 10.5156 29.5117 8.40625 32.832C11.3945 36.0156 15.9258 37.8516 20.3984 37.8516Z" fill="#B9B9B9"/>
</svg>
