<svg width="23" height="23" viewBox="0 0 23 23" fill="none" xmlns="http://www.w3.org/2000/svg">
<path d="M11.4805 15.8945C10.2305 15.6797 9.44922 15.2402 8.83398 14.625C6.46094 12.2617 6.48047 8.94141 8.82422 6.59766L12.1543 3.25781C14.498 0.914062 17.8184 0.894531 20.1914 3.26758C22.5547 5.64062 22.5352 8.95117 20.2012 11.2949L17.3301 14.1562C17.4277 13.5215 17.3691 12.7988 17.0957 12.1738L19.0098 10.2598C20.6992 8.57031 20.7188 6.1582 19.0098 4.44922C17.3008 2.74023 14.8984 2.75 13.1895 4.44922L10.0059 7.63281C8.31641 9.32227 8.30664 11.7441 10.0156 13.4531C10.6504 14.0879 11.4902 14.4785 12.7793 14.5762L11.4805 15.8945ZM11.7246 7.84766C12.9746 8.0625 13.7559 8.50195 14.3711 9.11719C16.7441 11.4805 16.7246 14.8008 14.3809 17.1445L11.041 20.4941C8.70703 22.8281 5.38672 22.8477 3.01367 20.4746C0.650391 18.1113 0.669922 14.791 3.00391 12.4473L5.875 9.58594C5.76758 10.2207 5.83594 10.9531 6.10938 11.5684L4.19531 13.4824C2.49609 15.1816 2.48633 17.584 4.19531 19.3027C5.9043 21.002 8.30664 20.9922 10.0059 19.293L13.1992 16.1094C14.8887 14.4199 14.8984 11.998 13.1895 10.2891C12.5547 9.6543 11.7148 9.27344 10.4258 9.16602L11.7246 7.84766Z" fill="#004BA9"/>
</svg>
