<svg width="33" height="24" viewBox="0 0 33 24" fill="none" xmlns="http://www.w3.org/2000/svg">
<path d="M31.6364 21.8182H30.5455V14.1818C30.5455 13.6032 30.3156 13.0482 29.9064 12.639C29.4972 12.2299 28.9423 12 28.3636 12H22.9091V2.18182C22.9091 1.60316 22.6792 1.04821 22.2701 0.63904C21.8609 0.229869 21.3059 0 20.7273 0H12C11.4213 0 10.8664 0.229869 10.4572 0.63904C10.0481 1.04821 9.81818 1.60316 9.81818 2.18182V6.54545H4.36364C3.78498 6.54545 3.23003 6.77532 2.82086 7.18449C2.41169 7.59367 2.18182 8.14862 2.18182 8.72727V21.8182H1.09091C0.801582 21.8182 0.524105 21.9331 0.31952 22.1377C0.114935 22.3423 0 22.6198 0 22.9091C0 23.1984 0.114935 23.4759 0.31952 23.6805C0.524105 23.8851 0.801582 24 1.09091 24H31.6364C31.9257 24 32.2032 23.8851 32.4078 23.6805C32.6123 23.4759 32.7273 23.1984 32.7273 22.9091C32.7273 22.6198 32.6123 22.3423 32.4078 22.1377C32.2032 21.9331 31.9257 21.8182 31.6364 21.8182ZM9.81818 21.8182H4.36364V8.72727H9.81818V21.8182ZM18 13.0909C18 13.3802 17.8851 13.6577 17.6805 13.8623C17.4759 14.0669 17.1984 14.1818 16.9091 14.1818C16.6198 14.1818 16.3423 14.0669 16.1377 13.8623C15.9331 13.6577 15.8182 13.3802 15.8182 13.0909V9.15L15.6177 9.21682C15.4818 9.26212 15.3383 9.28022 15.1954 9.27006C15.0525 9.2599 14.913 9.2217 14.7848 9.15763C14.6567 9.09355 14.5424 9.00487 14.4485 8.89663C14.3547 8.7884 14.283 8.66274 14.2377 8.52682C14.1924 8.3909 14.1743 8.24739 14.1845 8.10448C14.1946 7.96157 14.2328 7.82206 14.2969 7.69392C14.361 7.56577 14.4497 7.4515 14.5579 7.35763C14.6661 7.26376 14.7918 7.19213 14.9277 7.14682L16.5641 6.60136C16.7281 6.5467 16.9027 6.53178 17.0736 6.55785C17.2445 6.58392 17.4067 6.65023 17.547 6.75131C17.6872 6.85239 17.8014 6.98535 17.8802 7.13923C17.9589 7.2931 18 7.4635 18 7.63636V13.0909ZM28.3636 21.8182H22.9091V14.1818H28.3636V21.8182Z" fill="#4598FF"/>
</svg>
