<svg width="25" height="25" viewBox="0 0 25 25" fill="none" xmlns="http://www.w3.org/2000/svg">
<circle cx="12.5" cy="12.5" r="12.5" fill="white"/>
<path d="M12.5 0C10.0277 0 7.61099 0.733112 5.55538 2.10663C3.49976 3.48015 1.89761 5.43238 0.951511 7.71646C0.00541604 10.0005 -0.242126 12.5139 0.24019 14.9386C0.722505 17.3634 1.91301 19.5907 3.66117 21.3388C5.40933 23.087 7.63661 24.2775 10.0614 24.7598C12.4861 25.2421 14.9995 24.9946 17.2835 24.0485C19.5676 23.1024 21.5199 21.5002 22.8934 19.4446C24.2669 17.389 25 14.9723 25 12.5C24.9965 9.18587 23.6784 6.00848 21.335 3.66503C18.9915 1.32158 15.8141 0.00349978 12.5 0ZM15.3846 17.3077C15.6396 17.3077 15.8842 17.409 16.0645 17.5893C16.2449 17.7696 16.3462 18.0142 16.3462 18.2692C16.3462 18.5242 16.2449 18.7688 16.0645 18.9491C15.8842 19.1295 15.6396 19.2308 15.3846 19.2308H9.61539C9.43682 19.2308 9.26178 19.181 9.10988 19.0872C8.95798 18.9933 8.83522 18.859 8.75536 18.6992C8.6755 18.5395 8.6417 18.3607 8.65774 18.1829C8.67377 18.005 8.73902 17.8352 8.84616 17.6923L14.0349 10.774C14.201 10.5526 14.3174 10.298 14.3761 10.0274C14.4347 9.75692 14.4343 9.47692 14.3748 9.20657C14.3153 8.93623 14.1982 8.68191 14.0314 8.461C13.8646 8.24009 13.6521 8.05779 13.4083 7.92657C13.1646 7.79534 12.8954 7.71828 12.6192 7.70065C12.3429 7.68302 12.0661 7.72523 11.8077 7.82441C11.5492 7.92358 11.3153 8.07738 11.1217 8.27529C10.9282 8.4732 10.7797 8.71056 10.6863 8.97115C10.6012 9.21166 10.424 9.40851 10.1938 9.5184C9.96352 9.62828 9.69905 9.6422 9.45854 9.55709C9.21803 9.47198 9.02117 9.29481 8.91129 9.06456C8.80141 8.83431 8.78749 8.56984 8.8726 8.32933C9.05809 7.80714 9.35422 7.33121 9.74073 6.93411C10.1272 6.537 10.595 6.22811 11.112 6.02857C11.6289 5.82903 12.1829 5.74357 12.736 5.77802C13.2891 5.81247 13.8282 5.96603 14.3164 6.22818C14.8046 6.49033 15.2304 6.85488 15.5647 7.29688C15.8989 7.73888 16.1337 8.24789 16.2529 8.78905C16.3722 9.33021 16.3731 9.89076 16.2556 10.4323C16.1381 10.9738 15.9049 11.4836 15.5721 11.9267L11.5385 17.3077H15.3846Z" fill="#BCBCBC"/>
</svg>
