<svg width="41" height="41" viewBox="0 0 41 41" fill="none" xmlns="http://www.w3.org/2000/svg">
<path d="M20.418 40.8203C9.42188 40.8203 0.496094 31.8945 0.496094 20.8984C0.496094 9.90234 9.42188 0.976562 20.418 0.976562C31.4141 0.976562 40.3398 9.90234 40.3398 20.8984C40.3398 31.8945 31.4141 40.8203 20.418 40.8203ZM20.418 37.5C29.5977 37.5 37.0195 30.0781 37.0195 20.8984C37.0195 11.7188 29.5977 4.29688 20.418 4.29688C11.2383 4.29688 3.81641 11.7188 3.81641 20.8984C3.81641 30.0781 11.2383 37.5 20.418 37.5ZM11.3555 20.8984C11.3555 19.9219 12.0195 19.2383 13.0156 19.2383H18.7578V13.4961C18.7578 12.5 19.4219 11.8164 20.3789 11.8164C21.3555 11.8164 22.0391 12.5 22.0391 13.4961V19.2383H27.8008C28.7773 19.2383 29.4609 19.9219 29.4609 20.8984C29.4609 21.8555 28.7773 22.5 27.8008 22.5H22.0391V28.2617C22.0391 29.2578 21.3555 29.9219 20.3789 29.9219C19.4219 29.9219 18.7578 29.2383 18.7578 28.2617V22.5H13.0156C12.0195 22.5 11.3555 21.8555 11.3555 20.8984Z" fill="#B5B5B5"/>
</svg>
