<svg width="38" height="38" viewBox="0 0 38 38" fill="none" xmlns="http://www.w3.org/2000/svg">
<ellipse cx="19" cy="18.3947" rx="15" ry="15.3947" fill="#4598FF"/>
<path d="M18.7344 34.6562C10.0312 34.6562 2.79688 27.4219 2.79688 18.7188C2.79688 10 10.0156 2.78125 18.7188 2.78125C27.4375 2.78125 34.6719 10 34.6719 18.7188C34.6719 27.4219 27.4531 34.6562 18.7344 34.6562ZM18.7344 32C26.1094 32 32.0156 26.0938 32.0156 18.7188C32.0156 11.3438 26.0938 5.4375 18.7188 5.4375C11.3438 5.4375 5.46875 11.3438 5.46875 18.7188C5.46875 26.0938 11.3594 32 18.7344 32ZM11.4844 18.7188C11.4844 17.9375 12.0156 17.3906 12.8125 17.3906H17.4062V12.7969C17.4062 12 17.9375 11.4531 18.7031 11.4531C19.4844 11.4531 20.0312 12 20.0312 12.7969V17.3906H24.6406C25.4219 17.3906 25.9688 17.9375 25.9688 18.7188C25.9688 19.4844 25.4219 20 24.6406 20H20.0312V24.6094C20.0312 25.4062 19.4844 25.9375 18.7031 25.9375C17.9375 25.9375 17.4062 25.3906 17.4062 24.6094V20H12.8125C12.0156 20 11.4844 19.4844 11.4844 18.7188Z" fill="white"/>
</svg>
