<svg width="22" height="21" viewBox="0 0 22 21" fill="none" xmlns="http://www.w3.org/2000/svg">
<path d="M8.62891 20.8867C8.125 20.8867 7.76172 20.6641 7.41016 20.207L1.32812 12.4609C1.10547 12.1797 0.988281 11.875 0.988281 11.6055C0.988281 10.9609 1.44531 10.5039 2.11328 10.5039C2.53516 10.5039 2.82812 10.668 3.12109 11.0781L8.58203 18.2266L19.1055 1.45703C19.3867 1.01172 19.6445 0.859375 20.1133 0.859375C20.7578 0.859375 21.1797 1.28125 21.1797 1.92578C21.1797 2.19531 21.0977 2.45312 20.8867 2.79297L9.8125 20.2305C9.53125 20.6641 9.13281 20.8867 8.62891 20.8867Z" fill="#4598FF"/>
</svg>
