<svg width="35" height="34" viewBox="0 0 35 34" fill="none" xmlns="http://www.w3.org/2000/svg">
<circle cx="17.5" cy="17.5" r="12.5" fill="white"/>
<path fill-rule="evenodd" clip-rule="evenodd" d="M19.0688 0.634489C18.8647 0.433672 18.6207 0.274077 18.3513 0.165108C18.0819 0.0561386 17.7924 0 17.5 0C17.2076 0 16.9181 0.0561386 16.6487 0.165108C16.3793 0.274077 16.1353 0.433672 15.9312 0.634489L14.5333 2.01107C14.2581 2.28223 13.9118 2.47711 13.5307 2.57514C13.1497 2.67316 12.7482 2.6707 12.3685 2.56801L10.4403 2.0447C10.1587 1.96877 9.86414 1.94768 9.57392 1.98269C9.2837 2.01769 9.00373 2.10808 8.75051 2.24852C8.49729 2.38896 8.27595 2.57662 8.09954 2.80041C7.92313 3.02421 7.79523 3.27962 7.72337 3.55159L7.22818 5.41365C7.1311 5.78022 6.93269 6.11486 6.65388 6.38229C6.37507 6.64972 6.02618 6.84003 5.64402 6.93315L3.70272 7.40602C3.41918 7.47495 3.1529 7.59764 2.91958 7.76685C2.68626 7.93606 2.49062 8.14836 2.3442 8.39125C2.19779 8.63413 2.10355 8.90268 2.06705 9.18105C2.03056 9.45942 2.05254 9.74198 2.13171 10.0121L2.67729 11.8636C2.78393 12.2275 2.78628 12.6123 2.68409 12.9773C2.5819 13.3424 2.37897 13.6743 2.09665 13.938L0.661489 15.2809C0.452127 15.4767 0.28574 15.7107 0.172134 15.9692C0.0585275 16.2276 0 16.5052 0 16.7857C0 17.0662 0.0585275 17.3438 0.172134 17.6023C0.28574 17.8607 0.452127 18.0947 0.661489 18.2905L2.09665 19.6335C2.37897 19.8972 2.5819 20.229 2.68409 20.5941C2.78628 20.9592 2.78393 21.3439 2.67729 21.7078L2.13171 23.5573C2.05254 23.8273 2.03056 24.1099 2.06705 24.3883C2.10355 24.6667 2.19779 24.9352 2.3442 25.1781C2.49062 25.421 2.68626 25.6333 2.91958 25.8025C3.1529 25.9717 3.41918 26.0944 3.70272 26.1633L5.64402 26.6383C6.02618 26.7314 6.37507 26.9217 6.65388 27.1891C6.93269 27.4566 7.1311 27.7912 7.22818 28.1578L7.72117 30.0198C7.79328 30.2916 7.92136 30.5468 8.09787 30.7704C8.27438 30.9939 8.49575 31.1813 8.74895 31.3216C9.00214 31.4618 9.28203 31.552 9.57214 31.5869C9.86224 31.6218 10.1567 31.6006 10.4381 31.5246L12.3685 31.0034C12.7482 30.9007 13.1497 30.8983 13.5307 30.9963C13.9118 31.0943 14.2581 31.2892 14.5333 31.5604L15.9312 32.9369C16.1353 33.1378 16.3793 33.2974 16.6487 33.4063C16.9181 33.5153 17.2076 33.5714 17.5 33.5714C17.7924 33.5714 18.0819 33.5153 18.3513 33.4063C18.6207 33.2974 18.8647 33.1378 19.0688 32.9369L20.4689 31.5604C20.7439 31.2896 21.0899 31.0949 21.4705 30.9969C21.851 30.8989 22.2522 30.9011 22.6315 31.0034L24.5597 31.5246C24.8411 31.6006 25.1356 31.6218 25.4257 31.5869C25.7158 31.552 25.9957 31.4618 26.2489 31.3216C26.5021 31.1813 26.7234 30.9939 26.8999 30.7704C27.0765 30.5468 27.2045 30.2916 27.2766 30.0198L27.7718 28.1578C27.8689 27.7912 28.0673 27.4566 28.3461 27.1891C28.6249 26.9217 28.9738 26.7314 29.356 26.6383L31.2973 26.1654C31.5806 26.0962 31.8467 25.9734 32.0797 25.8041C32.3128 25.6348 32.5082 25.4224 32.6544 25.1796C32.8006 24.9367 32.8947 24.6683 32.931 24.39C32.9674 24.1117 32.9453 23.8293 32.8661 23.5594L32.3227 21.7078C32.2156 21.3436 32.2131 20.9584 32.3153 20.593C32.4175 20.2275 32.6206 19.8953 32.9033 19.6314L34.3385 18.2905C34.5479 18.0947 34.7143 17.8607 34.8279 17.6023C34.9415 17.3438 35 17.0662 35 16.7857C35 16.5052 34.9415 16.2276 34.8279 15.9692C34.7143 15.7107 34.5479 15.4767 34.3385 15.2809L32.9033 13.9401C32.6206 13.6762 32.4175 13.3439 32.3153 12.9785C32.2131 12.613 32.2156 12.2278 32.3227 11.8636L32.8661 10.0142C32.9453 9.74423 32.9674 9.4618 32.931 9.18354C32.8947 8.90528 32.8006 8.63681 32.6544 8.39395C32.5082 8.15109 32.3128 7.93875 32.0797 7.76944C31.8467 7.60014 31.5806 7.47729 31.2973 7.40813L29.356 6.93315C28.9738 6.84003 28.6249 6.64972 28.3461 6.38229C28.0673 6.11486 27.8689 5.78022 27.7718 5.41365L27.2788 3.55159C27.207 3.27962 27.0791 3.02421 26.9026 2.80041C26.7262 2.57662 26.5049 2.38896 26.2517 2.24852C25.9985 2.10808 25.7185 2.01769 25.4283 1.98269C25.1381 1.94768 24.8435 1.96877 24.5619 2.0447L22.6315 2.56801C22.2518 2.6707 21.8503 2.67316 21.4693 2.57514C21.0882 2.47711 20.7419 2.28223 20.4667 2.01107L19.0688 0.634489ZM15.3089 8.37909H19.6911V25.1923H15.3089V12.5824H13.1178V10.4807L15.3089 8.37909Z" fill="#FFD15B"/>
</svg>
