<svg width="34" height="33" viewBox="0 0 34 33" fill="none" xmlns="http://www.w3.org/2000/svg">
<path d="M19.9531 33C18.5 33 18.0156 31.8438 17.5469 30.2656L14.2656 19.125L2.98438 15.8125C1.48438 15.3594 0.390625 14.875 0.390625 13.4375C0.390625 12.2969 1.40625 11.5 2.71875 11L29.5938 0.703125C30.3125 0.421875 30.9531 0.265625 31.4844 0.265625C32.5 0.265625 33.125 0.890625 33.125 1.90625C33.125 2.4375 32.9688 3.07812 32.6875 3.79688L22.4531 30.5312C21.875 32.0312 21.0781 33 19.9531 33ZM14.9688 16.75L25.7188 6C26.5781 5.14062 27.8594 4.14062 28.8906 3.29688C27.7344 3.82812 26.5312 4.45312 25.2812 4.92188L4.15625 12.9219C3.92188 13.0156 3.85938 13.0938 3.85938 13.2031C3.85938 13.3125 3.9375 13.375 4.1875 13.4531L14.9688 16.75ZM20.2031 29.5625C20.3125 29.5625 20.375 29.4688 20.4688 29.2344L28.4688 8.10938C28.9375 6.84375 29.5781 5.64062 30.1094 4.45312C29.2812 5.51562 28.2344 6.82812 27.3906 7.67188L16.6406 18.4219L19.9375 29.2031C20.0156 29.4531 20.0781 29.5625 20.2031 29.5625Z" fill="black"/>
</svg>
