<svg width="30" height="36" viewBox="0 0 30 36" fill="none" xmlns="http://www.w3.org/2000/svg">
<path d="M15.0938 23.25C14.3125 23.25 13.6562 22.5938 13.6562 21.8281V6.14062L13.7812 3.8125L12.9531 4.8125L10.7188 7.1875C10.4688 7.46875 10.0938 7.625 9.73438 7.625C9.01562 7.625 8.45312 7.10938 8.45312 6.375C8.45312 6 8.60938 5.71875 8.85938 5.45312L14.0156 0.5C14.375 0.140625 14.7188 0.015625 15.0938 0.015625C15.4844 0.015625 15.8281 0.140625 16.1875 0.5L21.3281 5.45312C21.5938 5.71875 21.75 6 21.75 6.375C21.75 7.10938 21.1562 7.625 20.4531 7.625C20.0938 7.625 19.7344 7.46875 19.4844 7.1875L17.25 4.8125L16.4219 3.8125L16.5469 6.14062V21.8281C16.5469 22.5938 15.8906 23.25 15.0938 23.25ZM6.10938 35.8438C2.73438 35.8438 0.984375 34.1094 0.984375 30.7656V15.4531C0.984375 12.1094 2.73438 10.375 6.10938 10.375H10.7031V13.4375H6.29688C4.84375 13.4375 4.04688 14.2031 4.04688 15.7188V30.5C4.04688 32.0156 4.84375 32.7812 6.29688 32.7812H23.9062C25.3438 32.7812 26.1562 32.0156 26.1562 30.5V15.7188C26.1562 14.2031 25.3438 13.4375 23.9062 13.4375H19.4844V10.375H24.0938C27.4688 10.375 29.2188 12.125 29.2188 15.4531V30.7656C29.2188 34.0938 27.4688 35.8438 24.0938 35.8438H6.10938Z" fill="#1668D0"/>
</svg>
